# xmcd CD database file
#
# Track frame offsets:
#	150
#	78433
#	145380
#	192324
#	222855
#	259771
#
# Disc length: 4444 seconds
#
# Revision: 0
# Processed by: cddbd v1.5.1PL2 Copyright (c) Steve Scherf et al.
# Submitted via: CDex 1.51
#
DISCID=55115a06
DTITLE=Wynton Marsalis Septet - XM Radio
DYEAR=2005
DGENRE=Jazz
TTITLE0=Wynton Marsalis Septet - Pedro's Getaway
TTITLE1=Wynton Marsalis Septet - Jig's Jig
TTITLE2=Wynton Marsalis Septet - Green Chimneys
TTITLE3=Wynton Marsalis Septet - Reflections
TTITLE4=Wynton Marsalis Septet - Cherokee
TTITLE5=Wynton Marsalis Septet - Jig's Jig
EXTD=YEAR: 2005
EXTT0=
EXTT1=
EXTT2=
EXTT3=
EXTT4=
EXTT5=
PLAYORDER=
